# xmcd CD database file
#
# Track frame offsets:
#	150
#	12322
#	28776
#	47135
#	64270
#	85036
#	106224
#	124795
#	139079
#	141970
#	142668
#	161452
#	170387
#	185420
#	212344
#	233268
#	245200
#	262837
#	277422
#	325129
#	327927
#	339177
#
# Disc length: 4779 seconds
#
# Revision: 2
# Processed by: cddbd v1.5.2PL0 Copyright (c) Steve Scherf et al.
# Submitted via: CDex 1.70beta2
#
DISCID=3312a916
DTITLE=Sundive - One (live)
DYEAR=2008
DGENRE=Blues
TTITLE0=The One I Know
TTITLE1=Hör Mir An
TTITLE2=the Humbug Pill
TTITLE3=My Selfdestructive Me
TTITLE4=Seven Years
TTITLE5=The Truest Friend Indeed
TTITLE6=At The Inn
TTITLE7=Hot Cool Woman
TTITLE8=Did She Re-Do
TTITLE9=Crazy Bird
TTITLE10=Claud-Less
TTITLE11=Road Piece
TTITLE12=Old Man Bob
TTITLE13=Dutch Treat
TTITLE14=Eating You Inside
TTITLE15=Stop (Living On Your Own
TTITLE16=Drogen
TTITLE17=Introducing Sundive
TTITLE18=Uuuuummmmmmaaaaaahhhhhh
TTITLE19=The shortest Blues Of The World
TTITLE20=Silence
TTITLE21=Hidden Track
EXTD=YEAR: 2008
EXTT0=
EXTT1=
EXTT2=
EXTT3=
EXTT4=
EXTT5=
EXTT6=
EXTT7=
EXTT8=
EXTT9=
EXTT10=
EXTT11=
EXTT12=
EXTT13=
EXTT14=
EXTT15=
EXTT16=
EXTT17=
EXTT18=
EXTT19=
EXTT20=
EXTT21=
PLAYORDER=
